<?xml version="1.0" encoding="utf-8"?>
<!-- Generator: Adobe Illustrator 22.1.0, SVG Export Plug-In . SVG Version: 6.00 Build 0)  -->
<svg version="1.1" xmlns="http://www.w3.org/2000/svg" xmlns:xlink="http://www.w3.org/1999/xlink" x="0px" y="0px"
	 viewBox="0 0 132.2 147.2" style="enable-background:new 0 0 132.2 147.2;" xml:space="preserve">
<style type="text/css">
	.st0{fill:#00A4E4;}
	.st1{fill:#282828;}
	.st2{fill:#90CFED;}
	.st3{fill:#FFFFFF;}
	.st4{fill:#727272;}
	.st5{display:none;}
	.st6{display:inline;}
	.st7{opacity:0.5;fill:#FFFFFF;}
	.st8{display:inline;fill:#00A4E4;}
	.st9{display:inline;fill:none;}
	.st10{font-family:'GothamRounded-Bold';}
	.st11{font-size:9px;}
	.st12{font-family:'GothamRounded-BookItalic';}
	.st13{font-size:8px;}
	.st14{font-family:'GothamRounded-Book';}
	.st15{font-size:7px;}
	.st16{display:inline;fill:#282828;}
	.st17{display:inline;fill:#F5F5F5;}
</style>
<g id="Front">
	<g>
		<path class="st0" d="M94.3,30.5c0.1-0.9,0.2-1.9,0.2-2.9c0-15.1-12.3-27.3-27.3-27.3C52,0.3,39.8,12.5,39.8,27.6
			c0,0.9,0,1.7,0.1,2.5C29.6,34.1,22.3,44,22.3,55.7C22.3,70.7,34.6,83,49.6,83c6.4,0,12.4-2.3,17.1-6c4.7,3.7,10.6,6,17.1,6
			c15.1,0,27.3-12.3,27.3-27.3C111.1,44.3,104.1,34.6,94.3,30.5z"/>
		<g>
			<g>
				<path class="st1" d="M8,93.7H2.2c-1.1,0-1.9-0.9-1.9-1.9c0-1.1,0.9-1.9,1.9-1.9h15.9c1.1,0,1.9,0.9,1.9,1.9
					c0,1.1-0.9,1.9-1.9,1.9h-5.8v18.1c0,1.2-1,2.1-2.1,2.1C9,113.9,8,113,8,111.8V93.7z"/>
				<path class="st1" d="M23,91.9c0-1.2,0.9-2.1,2.1-2.1h8.5c3,0,5.4,0.9,6.9,2.4c1.3,1.3,2,3.1,2,5.2v0.1c0,3.8-2.2,6.1-5.4,7.1
					l4.6,5.8c0.4,0.5,0.7,1,0.7,1.6c0,1.2-1,1.9-2,1.9c-1,0-1.6-0.4-2-1.1l-5.8-7.4h-5.3v6.4c0,1.2-0.9,2.1-2.1,2.1
					c-1.2,0-2.1-0.9-2.1-2.1V91.9z M33.4,101.7c3,0,4.9-1.6,4.9-4v-0.1c0-2.6-1.8-4-4.9-4h-6.1v8H33.4z"/>
				<path class="st1" d="M46.7,91.7c0-1.2,0.9-2.1,2.1-2.1c1.2,0,2.1,0.9,2.1,2.1v20.1c0,1.2-0.9,2.1-2.1,2.1
					c-1.2,0-2.1-0.9-2.1-2.1V91.7z"/>
				<path class="st1" d="M56,91.8c0-1.2,0.9-2.1,2.1-2.1h0.4c1,0,1.6,0.5,2.2,1.2l11.9,15.5V91.7c0-1.1,0.9-2,2-2
					c1.2,0,2.1,0.9,2.1,2v20.1c0,1.2-0.9,2.1-2,2.1h-0.2c-1,0-1.6-0.5-2.2-1.3L60.2,96.7v15.2c0,1.1-0.9,2-2,2c-1.2,0-2.1-0.9-2.1-2
					V91.8z"/>
				<path class="st1" d="M82,91.7c0-1.2,0.9-2.1,2.1-2.1c1.2,0,2.1,0.9,2.1,2.1v20.1c0,1.2-0.9,2.1-2.1,2.1c-1.2,0-2.1-0.9-2.1-2.1
					V91.7z"/>
				<path class="st1" d="M97.2,93.7h-5.8c-1.1,0-1.9-0.9-1.9-1.9c0-1.1,0.9-1.9,1.9-1.9h15.9c1.1,0,1.9,0.9,1.9,1.9
					c0,1.1-0.9,1.9-1.9,1.9h-5.8v18.1c0,1.2-1,2.1-2.1,2.1c-1.2,0-2.1-0.9-2.1-2.1V93.7z"/>
				<path class="st1" d="M119,104.4l-8.2-11.3c-0.3-0.4-0.5-0.9-0.5-1.5c0-1.1,0.9-2,2.1-2c0.9,0,1.5,0.5,2,1.3l6.7,9.6l6.8-9.6
					c0.5-0.8,1.1-1.3,2-1.3c1.2,0,2,0.9,2,2c0,0.6-0.3,1.1-0.6,1.5l-8.2,11.2v7.5c0,1.2-0.9,2.1-2.1,2.1c-1.2,0-2.1-0.9-2.1-2.1
					V104.4z"/>
			</g>
		</g>
		<g>
			<g>
				<path class="st1" d="M19.5,123.2L19.5,123.2c0-2.6,1.9-4.7,4.5-4.7c1.5,0,2.4,0.5,3.3,1.3c0.1,0.1,0.1,0.2,0.1,0.3
					c0,0.2-0.2,0.3-0.3,0.3c-0.1,0-0.2,0-0.2-0.1c-0.7-0.7-1.6-1.2-2.9-1.2c-2.1,0-3.8,1.8-3.8,4v0c0,2.3,1.7,4,3.8,4
					c1.2,0,2.1-0.4,2.9-1.2c0.1-0.1,0.1-0.1,0.2-0.1c0.2,0,0.3,0.2,0.3,0.3c0,0.1-0.1,0.2-0.1,0.2c-0.9,0.8-1.9,1.4-3.4,1.4
					C21.4,127.8,19.5,125.8,19.5,123.2z"/>
				<path class="st1" d="M32.5,119c0-0.2,0.2-0.3,0.3-0.3s0.3,0.2,0.3,0.3v8.1h5c0.2,0,0.3,0.1,0.3,0.3c0,0.2-0.1,0.3-0.3,0.3h-5.3
					c-0.2,0-0.3-0.2-0.3-0.3V119z"/>
				<path class="st1" d="M43.6,127.3V119c0-0.2,0.2-0.3,0.3-0.3h5.8c0.2,0,0.3,0.1,0.3,0.3c0,0.2-0.1,0.3-0.3,0.3h-5.5v3.5h4.9
					c0.2,0,0.3,0.1,0.3,0.3c0,0.2-0.1,0.3-0.3,0.3h-4.9v3.6h5.5c0.2,0,0.3,0.1,0.3,0.3c0,0.2-0.1,0.3-0.3,0.3H44
					C43.8,127.7,43.6,127.5,43.6,127.3z"/>
				<path class="st1" d="M54.8,127.2l3.8-8.3c0.1-0.2,0.2-0.3,0.4-0.3h0c0.2,0,0.4,0.1,0.4,0.3l3.8,8.3c0,0.1,0.1,0.1,0.1,0.2
					c0,0.2-0.1,0.3-0.3,0.3c-0.2,0-0.3-0.1-0.3-0.3l-1-2.3h-5.3l-1,2.3c-0.1,0.2-0.2,0.2-0.3,0.2c-0.2,0-0.3-0.1-0.3-0.3
					C54.8,127.4,54.8,127.3,54.8,127.2z M61.5,124.6l-2.4-5.2l-2.4,5.2H61.5z"/>
				<path class="st1" d="M68.7,119c0-0.2,0.2-0.3,0.3-0.3h0.1c0.1,0,0.2,0.1,0.3,0.2l6,7.7V119c0-0.2,0.1-0.3,0.3-0.3
					s0.3,0.1,0.3,0.3v8.4c0,0.2-0.1,0.3-0.3,0.3h-0.1c-0.1,0-0.2-0.1-0.3-0.2l-6.2-7.8v7.7c0,0.2-0.1,0.3-0.3,0.3s-0.3-0.1-0.3-0.3
					V119z"/>
				<path class="st1" d="M82,127.3V119c0-0.2,0.2-0.3,0.3-0.3h5.8c0.2,0,0.3,0.1,0.3,0.3c0,0.2-0.1,0.3-0.3,0.3h-5.5v3.5h4.9
					c0.2,0,0.3,0.1,0.3,0.3c0,0.2-0.1,0.3-0.3,0.3h-4.9v3.6h5.5c0.2,0,0.3,0.1,0.3,0.3c0,0.2-0.1,0.3-0.3,0.3h-5.8
					C82.2,127.7,82,127.5,82,127.3z"/>
				<path class="st1" d="M93.8,119c0-0.2,0.2-0.3,0.3-0.3h3.4c1.1,0,2,0.3,2.5,0.9c0.4,0.4,0.7,1,0.7,1.7v0c0,1.5-1.1,2.4-2.6,2.6
					l2.5,3.3c0.1,0.1,0.1,0.2,0.1,0.2c0,0.2-0.2,0.3-0.3,0.3c-0.1,0-0.2-0.1-0.3-0.2l-2.8-3.6h-2.9v3.4c0,0.2-0.2,0.3-0.3,0.3
					c-0.2,0-0.3-0.2-0.3-0.3V119z M97.5,123.4c1.5,0,2.6-0.8,2.6-2v0c0-1.2-0.9-2-2.6-2h-3.1v4H97.5z"/>
				<path class="st1" d="M105.9,126.5c-0.1-0.1-0.1-0.1-0.1-0.3c0-0.2,0.2-0.3,0.3-0.3c0.1,0,0.2,0,0.2,0.1c0.9,0.8,1.8,1.2,3,1.2
					c1.3,0,2.3-0.8,2.3-1.8v0c0-0.9-0.5-1.5-2.5-1.9c-2.1-0.4-3-1.2-3-2.5v0c0-1.3,1.2-2.4,2.9-2.4c1.2,0,2,0.3,2.9,0.9
					c0.1,0.1,0.1,0.1,0.1,0.3c0,0.2-0.2,0.3-0.3,0.3c-0.1,0-0.2,0-0.2-0.1c-0.8-0.6-1.6-0.8-2.5-0.8c-1.3,0-2.2,0.8-2.2,1.7v0
					c0,0.9,0.5,1.5,2.6,2c2.1,0.4,2.9,1.2,2.9,2.5v0c0,1.4-1.2,2.4-3,2.4C107.9,127.8,106.9,127.4,105.9,126.5z"/>
			</g>
		</g>
		<path class="st2" d="M45,42.1c-0.6-1-1.2-2-1.7-3c-6.7,2.6-11.4,9-11.4,16.6c0,4.5,1.7,8.5,4.4,11.7c-1.3-2.5-2-5.3-2-8.3
			C34.3,51.5,38.7,45.1,45,42.1z"/>
		<path class="st2" d="M49.6,29.2c0.7,0,1.5,0,2.2,0.1C52.6,19.6,60.6,12,70.4,12c3,0,5.8,0.7,8.3,2c-3.1-2.7-7.2-4.4-11.7-4.4
			c-9.8,0-17.7,7.9-17.7,17.7c0,0.6,0,1.2,0.1,1.8C49.5,29.2,49.6,29.2,49.6,29.2z"/>
		<path class="st3" d="M50.9,69.1c0,1.3,1.1,2.4,2.4,2.4c1.3,0,2.3-1.1,2.3-2.4c0-1.3-1-2.4-2.3-2.4C51.9,66.7,50.9,67.8,50.9,69.1z
			"/>
		<path class="st3" d="M38.1,64.4c0,0.9,0.7,1.6,1.6,1.6c0.9,0,1.6-0.7,1.6-1.6c0-0.9-0.7-1.6-1.6-1.6
			C38.9,62.7,38.1,63.5,38.1,64.4z"/>
		<path class="st3" d="M47.1,60.9c0,0.6,0.5,1.1,1.1,1.1c0.6,0,1.1-0.5,1.1-1.1c0-0.6-0.5-1.1-1.1-1.1
			C47.5,59.8,47.1,60.3,47.1,60.9z"/>
		<path class="st3" d="M87.2,60.8c0,0.6,0.5,1.1,1.1,1.1s1.1-0.5,1.1-1.1c0-0.6-0.5-1.1-1.1-1.1S87.2,60.2,87.2,60.8z"/>
		<path class="st3" d="M94.4,64.4c0,0.9,0.7,1.6,1.6,1.6c0.9,0,1.6-0.7,1.6-1.6c0-0.9-0.7-1.6-1.6-1.6
			C95.2,62.7,94.4,63.5,94.4,64.4z"/>
		<path class="st3" d="M79.2,62.9c0,0.6,0.5,1.1,1.1,1.1c0.6,0,1.1-0.5,1.1-1.1c0-0.6-0.5-1.1-1.1-1.1
			C79.6,61.8,79.2,62.3,79.2,62.9z"/>
		<path class="st3" d="M90.9,32.5c0.3-1.6,0.5-3.2,0.5-4.9c0-13.4-10.9-24.3-24.3-24.3c-13.4,0-24.3,10.9-24.3,24.3
			c0,1.6,0.2,3.2,0.5,4.7C33,35.1,25.4,44.5,25.4,55.7c0,13.4,10.9,24.3,24.3,24.3c3.9,0,7.5-0.9,10.8-2.6c0.3-0.1,0.6-0.2,0.9-0.5
			c2-1.1,3.8-2.4,5.4-4c4.4,4.3,10.4,7,17.1,7C97.1,79.9,108,69,108,55.7C108,44.8,100.8,35.5,90.9,32.5z M67.1,6.7
			C78.6,6.7,88,16.1,88,27.6c0,1.4-0.1,2.8-0.4,4.1c-1.3-0.2-2.6-0.3-3.9-0.3c-6.6,0-12.7,2.7-17.1,7c-4.4-4.3-10.4-7-17.1-7
			c-1,0-2.1,0.1-3.1,0.2c-0.3-1.3-0.4-2.6-0.4-4C46.2,16.1,55.6,6.7,67.1,6.7z M66.7,43.6c1.1,1.5,1.9,3.1,2.6,4.9
			c-0.7,0.1-1.4,0.1-2.2,0.1c-1,0-2-0.1-2.9-0.2C64.8,46.6,65.7,45,66.7,43.6z M60.9,47.6c-6.2-1.9-11.2-6.7-13.4-12.8
			c0.7-0.1,1.4-0.1,2.1-0.1c5.8,0,11.1,2.4,14.9,6.2C63,42.9,61.7,45.2,60.9,47.6z M68.9,40.9c3.8-3.8,9.1-6.2,14.9-6.2
			c1,0,2,0.1,2.9,0.2c-2.4,6.2-7.6,11.1-14.1,12.8C71.7,45.3,70.4,43,68.9,40.9z M61.3,73c-0.4-0.3-1-0.6-1.6-0.6
			c-0.9,0-1.7,0.5-2.1,1.1c-0.4-0.2-0.8-0.3-1.2-0.3c-1.5,0-2.7,1.2-2.7,2.7c0,0.1,0,0.1,0,0.2c0,0-0.1,0-0.1,0c0-0.1,0-0.1,0-0.2
			c0-1.5-1.2-2.7-2.7-2.7c-0.6,0-1.2,0.2-1.7,0.6c-0.6-0.9-1.5-1.4-2.6-1.4c-0.2,0-0.3,0-0.5,0c0-0.1,0-0.2,0-0.2
			c0-2.7-2.2-4.9-4.9-4.9c-1.2,0-2.2,0.4-3,1.1c-0.3-1.4-1.6-2.5-3.1-2.5c-1.2,0-2.2,0.6-2.7,1.5c-2.3-3.4-3.6-7.4-3.6-11.8
			c0-9.7,6.6-17.8,15.5-20.2c2.5,7.3,8.4,13,15.8,15.3c-0.3,1.6-0.5,3.2-0.5,4.9c0,5.5,1.9,10.6,5,14.7C63.5,71.4,62.5,72.2,61.3,73
			z M66.7,67.8c-2.4-3.4-3.9-7.6-3.9-12.1c0-1.4,0.1-2.8,0.4-4.1c1.3,0.2,2.6,0.3,3.9,0.3c1,0,2.1-0.1,3.1-0.2
			c0.3,1.3,0.4,2.6,0.4,4C70.6,60.2,69.1,64.3,66.7,67.8z M99.7,65.9c-1.5,0-2.8,1.1-3.1,2.5c-0.8-0.7-1.9-1.1-3-1.1
			c-2.7,0-4.9,2.2-4.9,4.9c0,0.1,0,0.2,0,0.2c-0.2,0-0.3,0-0.5,0c-1.2,0-2.3,0.7-2.8,1.8c-0.5-0.6-1.2-0.9-2-0.9
			c-1,0-1.8,0.5-2.3,1.3c-0.3-0.4-0.7-0.8-1.2-1c0.6,0,1.1-0.6,1.1-1.2c0-0.7-0.5-1.2-1.2-1.2c-0.7,0-1.2,0.6-1.2,1.2
			c0,0.4,0.2,0.8,0.5,1c-0.1,0-0.2,0-0.4,0c-1,0-1.9,0.6-2.4,1.4c-0.1-1.3-1.2-2.2-2.5-2.2c-0.7,0-1.3,0.3-1.7,0.7
			c-1.2-0.8-2.3-1.7-3.3-2.7c3.1-4.1,5-9.2,5-14.7c0-1.6-0.2-3.2-0.5-4.7c7.7-2.1,13.9-7.9,16.5-15.3c8.5,2.7,14.7,10.6,14.7,20
			c0,4-1.1,7.7-3.1,10.9C101.1,66.1,100.4,65.9,99.7,65.9z"/>
		<path class="st3" d="M90.3,66c-3.8,0-5.4,1.6-5.4,5.4c0-3.8-1.6-5.4-5.4-5.4c3.8,0,5.4-1.6,5.4-5.4C84.9,64.5,86.5,66,90.3,66z"/>
		<g>
			<path class="st1" d="M10.5,146.6c-0.1,0.2-0.2,0.3-0.4,0.3c-0.2,0-0.4-0.2-0.3-0.4l0.6-2.1L9,141.3c0-0.1-0.1-0.2-0.1-0.3
				c0-0.2,0.1-0.3,0.4-0.3c0.2,0,0.3,0.1,0.4,0.3l1.2,2.9l2.8-3c0.1-0.1,0.2-0.2,0.4-0.2c0.2,0,0.3,0.1,0.3,0.3
				c0,0.1-0.1,0.2-0.1,0.3l-3.2,3.3L10.5,146.6z"/>
			<path class="st1" d="M13.6,145c0-1.4,1.2-2.7,2.7-2.7c1.3,0,2.1,0.9,2.1,2c0,1.5-1.3,2.7-2.7,2.7C14.4,147,13.6,146.2,13.6,145z
				 M17.7,144.3c0-0.9-0.6-1.5-1.4-1.5c-1,0-1.9,1-1.9,2.1c0,0.9,0.6,1.5,1.4,1.5C16.7,146.4,17.7,145.4,17.7,144.3z"/>
			<path class="st1" d="M22.2,146.6l0.1-0.4c-0.4,0.5-0.9,0.8-1.6,0.8c-0.9,0-1.4-0.5-1.4-1.4c0-0.2,0.1-0.5,0.1-0.7l0.6-2.2
				c0.1-0.2,0.2-0.3,0.4-0.3c0.2,0,0.3,0.2,0.3,0.4l-0.6,2.2c0,0.1-0.1,0.4-0.1,0.5c0,0.6,0.4,1,1,1c0.7,0,1.4-0.6,1.6-1.5l0.6-2.3
				c0.1-0.2,0.2-0.3,0.4-0.3c0.2,0,0.3,0.2,0.3,0.4l-1,3.9c-0.1,0.2-0.2,0.3-0.4,0.3S22.2,146.8,22.2,146.6z"/>
			<path class="st1" d="M25.9,143.5c0.5-0.8,1.2-1.2,1.8-1.2c0.2,0,0.3,0.1,0.3,0.3c0,0.2-0.1,0.3-0.4,0.4c-0.9,0.1-1.8,0.8-2.1,2.1
				l-0.4,1.5c-0.1,0.2-0.2,0.3-0.4,0.3c-0.2,0-0.3-0.2-0.3-0.4l1-3.9c0.1-0.2,0.2-0.3,0.4-0.3c0.2,0,0.3,0.2,0.3,0.4L25.9,143.5z"/>
			<path class="st1" d="M31.1,144.4c0-1.9,1.6-3.7,3.6-3.7c1.6,0,2.7,1.2,2.7,2.7c0,1.9-1.6,3.7-3.6,3.7
				C32.3,147.1,31.1,145.9,31.1,144.4z M36.7,143.4c0-1.2-0.8-2.1-2-2.1c-1.6,0-2.8,1.5-2.8,3c0,1.2,0.8,2.1,2,2.1
				C35.5,146.4,36.7,144.9,36.7,143.4z"/>
			<path class="st1" d="M38.9,146.6c-0.1,0.2-0.2,0.3-0.4,0.3c-0.2,0-0.3-0.2-0.3-0.4l1-3.6h-0.3c-0.1,0-0.3-0.1-0.3-0.3
				c0-0.2,0.1-0.3,0.3-0.3h0.4l0.1-0.5c0.2-0.9,0.8-1.3,1.6-1.3c0.2,0,0.5,0,0.6,0.1c0.2,0.1,0.2,0.1,0.2,0.3c0,0.2-0.2,0.4-0.4,0.3
				c-0.2-0.1-0.3-0.1-0.5-0.1c-0.4,0-0.8,0.3-0.9,0.9l-0.1,0.4h1.1c0.2,0,0.3,0.1,0.3,0.3s-0.1,0.3-0.3,0.3h-1.3L38.9,146.6z
				 M42.2,146.6c-0.1,0.2-0.2,0.3-0.4,0.3c-0.2,0-0.3-0.2-0.3-0.4l1-3.6h-0.3c-0.1,0-0.3-0.1-0.3-0.3c0-0.2,0.1-0.3,0.3-0.3h0.4
				l0.1-0.5c0.2-0.9,0.8-1.3,1.6-1.3c0.2,0,0.5,0,0.6,0.1c0.2,0.1,0.2,0.1,0.2,0.3c0,0.2-0.2,0.4-0.4,0.3c-0.2-0.1-0.3-0.1-0.5-0.1
				c-0.4,0-0.8,0.3-0.9,0.9l-0.1,0.4h1.1c0.2,0,0.3,0.1,0.3,0.3s-0.1,0.3-0.3,0.3h-1.3L42.2,146.6z M45.4,146.6
				c-0.1,0.2-0.2,0.3-0.4,0.3c-0.2,0-0.3-0.2-0.3-0.4l1-3.9c0.1-0.2,0.2-0.3,0.4-0.3c0.2,0,0.3,0.2,0.3,0.4L45.4,146.6z M46.5,141.4
				c-0.2,0-0.4-0.1-0.3-0.3l0-0.2c0.1-0.2,0.2-0.3,0.4-0.3c0.2,0,0.4,0.1,0.3,0.3l0,0.2C46.8,141.3,46.7,141.4,46.5,141.4z"/>
			<path class="st1" d="M49.1,147c-1.1,0-2-0.7-2-2c0-1.5,1.2-2.8,2.7-2.8c0.8,0,1.3,0.4,1.6,0.8c0.1,0.1,0.1,0.2,0.1,0.3
				c0,0.2-0.1,0.3-0.3,0.3c-0.1,0-0.2,0-0.3-0.1c-0.3-0.4-0.6-0.7-1.2-0.7c-1,0-1.9,1-1.9,2.1c0,0.9,0.6,1.4,1.4,1.4
				c0.4,0,0.8-0.2,1.2-0.5c0.1-0.1,0.1-0.1,0.2-0.1c0.2,0,0.3,0.1,0.3,0.3c0,0.1,0,0.2-0.1,0.2C50.3,146.8,49.8,147,49.1,147z"/>
			<path class="st1" d="M55.3,146c0.1,0,0.1-0.1,0.2-0.1c0.2,0,0.3,0.1,0.3,0.3c0,0.1-0.1,0.2-0.1,0.2c-0.4,0.3-1,0.6-1.6,0.6
				c-1.2,0-2-0.8-2-1.9c0-1.4,1.1-2.8,2.7-2.8c1.2,0,1.8,0.8,1.8,1.7c0,0.2,0,0.4-0.1,0.6c0,0.2-0.2,0.3-0.4,0.3h-3.3
				c0,0.1,0,0.1,0,0.2c0,0.8,0.5,1.3,1.4,1.3C54.5,146.5,54.9,146.3,55.3,146z M55.7,144.4c0-0.1,0-0.2,0-0.4c0-0.6-0.4-1.2-1.1-1.2
				c-0.9,0-1.6,0.7-1.8,1.5H55.7z"/>
			<path class="st1" d="M60.5,146.6c-0.1,0.2-0.2,0.3-0.4,0.3c-0.2,0-0.4-0.2-0.3-0.4l1.5-5.5c0.1-0.2,0.2-0.3,0.4-0.3
				c0.2,0,0.4,0.2,0.3,0.4L60.5,146.6z"/>
			<path class="st1" d="M64.9,145.7c0-0.3-0.2-0.5-0.9-0.8c-0.8-0.3-1.3-0.6-1.3-1.2c0-0.8,0.7-1.4,1.7-1.4c0.6,0,1.2,0.2,1.5,0.5
				c0.1,0.1,0.2,0.1,0.2,0.3c0,0.2-0.1,0.3-0.3,0.3c-0.1,0-0.1,0-0.2-0.1c-0.4-0.2-0.8-0.4-1.2-0.4c-0.6,0-1,0.3-1,0.7
				c0,0.3,0.2,0.5,0.9,0.8c0.8,0.3,1.2,0.7,1.2,1.3c0,0.8-0.8,1.4-1.7,1.4c-0.6,0-1.3-0.2-1.8-0.6c-0.1-0.1-0.1-0.2-0.1-0.3
				c0-0.2,0.1-0.3,0.3-0.3c0.1,0,0.2,0,0.2,0.1c0.5,0.4,0.9,0.5,1.4,0.5C64.4,146.5,64.9,146.2,64.9,145.7z"/>
			<path class="st1" d="M69.7,144.4c0-1.9,1.6-3.7,3.6-3.7c1.6,0,2.7,1.2,2.7,2.7c0,1.9-1.6,3.7-3.6,3.7
				C70.8,147.1,69.7,145.9,69.7,144.4z M75.3,143.4c0-1.2-0.8-2.1-2-2.1c-1.6,0-2.8,1.5-2.8,3c0,1.2,0.8,2.1,2,2.1
				C74.1,146.4,75.3,144.9,75.3,143.4z"/>
			<path class="st1" d="M79.8,146.6l0.1-0.4c-0.4,0.5-0.9,0.8-1.6,0.8c-0.9,0-1.4-0.5-1.4-1.4c0-0.2,0.1-0.5,0.1-0.7l0.6-2.2
				c0.1-0.2,0.2-0.3,0.4-0.3c0.2,0,0.3,0.2,0.3,0.4l-0.6,2.2c0,0.1-0.1,0.4-0.1,0.5c0,0.6,0.4,1,1,1c0.7,0,1.4-0.6,1.6-1.5l0.6-2.3
				c0.1-0.2,0.2-0.3,0.4-0.3c0.2,0,0.3,0.2,0.3,0.4l-1,3.9c-0.1,0.2-0.2,0.3-0.4,0.3C79.9,147,79.8,146.8,79.8,146.6z"/>
			<path class="st1" d="M83.5,143.5c0.5-0.8,1.2-1.2,1.8-1.2c0.2,0,0.3,0.1,0.3,0.3c0,0.2-0.1,0.3-0.4,0.4c-0.9,0.1-1.8,0.8-2.1,2.1
				l-0.4,1.5c-0.1,0.2-0.2,0.3-0.4,0.3c-0.2,0-0.3-0.2-0.3-0.4l1-3.9c0.1-0.2,0.2-0.3,0.4-0.3c0.2,0,0.3,0.2,0.3,0.4L83.5,143.5z"/>
			<path class="st1" d="M88.6,146.9c-0.2,0-0.4-0.2-0.3-0.4l1.5-5.4c0.1-0.2,0.2-0.4,0.4-0.4h2c1.2,0,1.9,0.6,1.9,1.4
				c0,0.9-0.7,1.4-1.5,1.6c0.6,0.2,1.1,0.6,1.1,1.3c0,1.1-1,1.8-2.6,1.8H88.6z M91.1,146.3c1.1,0,1.8-0.5,1.8-1.2
				c0-0.6-0.6-0.9-1.4-0.9h-1.9l-0.6,2.2H91.1z M91.6,143.5c1.1,0,1.8-0.5,1.8-1.2c0-0.6-0.5-0.9-1.3-0.9h-1.7l-0.6,2.1H91.6z"/>
			<path class="st1" d="M97.7,146.6l0.1-0.4c-0.4,0.5-0.9,0.8-1.6,0.8c-0.9,0-1.4-0.5-1.4-1.4c0-0.2,0.1-0.5,0.1-0.7l0.6-2.2
				c0.1-0.2,0.2-0.3,0.4-0.3c0.2,0,0.3,0.2,0.3,0.4l-0.6,2.2c0,0.1-0.1,0.4-0.1,0.5c0,0.6,0.4,1,1,1c0.7,0,1.4-0.6,1.6-1.5l0.6-2.3
				c0.1-0.2,0.2-0.3,0.4-0.3c0.2,0,0.3,0.2,0.3,0.4l-1,3.9c-0.1,0.2-0.2,0.3-0.4,0.3C97.8,147,97.6,146.8,97.7,146.6z"/>
			<path class="st1" d="M102.6,145.7c0-0.3-0.2-0.5-0.9-0.8c-0.8-0.3-1.3-0.6-1.3-1.2c0-0.8,0.7-1.4,1.7-1.4c0.6,0,1.2,0.2,1.5,0.5
				c0.1,0.1,0.2,0.1,0.2,0.3c0,0.2-0.1,0.3-0.3,0.3c-0.1,0-0.1,0-0.2-0.1c-0.4-0.2-0.8-0.4-1.2-0.4c-0.6,0-1,0.3-1,0.7
				c0,0.3,0.2,0.5,0.9,0.8c0.8,0.3,1.2,0.7,1.2,1.3c0,0.8-0.8,1.4-1.7,1.4c-0.6,0-1.3-0.2-1.8-0.6c-0.1-0.1-0.1-0.2-0.1-0.3
				c0-0.2,0.1-0.3,0.3-0.3c0.1,0,0.2,0,0.2,0.1c0.5,0.4,0.9,0.5,1.4,0.5C102.1,146.5,102.6,146.2,102.6,145.7z"/>
			<path class="st1" d="M105,146.6c-0.1,0.2-0.2,0.3-0.4,0.3c-0.2,0-0.3-0.2-0.3-0.4l1-3.9c0.1-0.2,0.2-0.3,0.4-0.3
				c0.2,0,0.3,0.2,0.3,0.4L105,146.6z M106.1,141.4c-0.2,0-0.4-0.1-0.3-0.3l0-0.2c0.1-0.2,0.2-0.3,0.4-0.3c0.2,0,0.4,0.1,0.3,0.3
				l0,0.2C106.5,141.3,106.3,141.4,106.1,141.4z"/>
			<path class="st1" d="M108.3,142.7l-0.1,0.4c0.4-0.5,0.9-0.8,1.6-0.8c0.9,0,1.5,0.5,1.5,1.4c0,0.2-0.1,0.5-0.1,0.7l-0.6,2.2
				c-0.1,0.2-0.2,0.3-0.4,0.3c-0.2,0-0.3-0.2-0.3-0.4l0.6-2.2c0-0.1,0.1-0.4,0.1-0.5c0-0.6-0.4-1-1-1c-0.7,0-1.4,0.6-1.6,1.5
				l-0.6,2.3c-0.1,0.2-0.2,0.3-0.4,0.3c-0.2,0-0.3-0.2-0.3-0.4l1-3.9c0.1-0.2,0.2-0.3,0.4-0.3C108.2,142.3,108.3,142.5,108.3,142.7z
				"/>
			<path class="st1" d="M115.4,146c0.1,0,0.1-0.1,0.2-0.1c0.2,0,0.3,0.1,0.3,0.3c0,0.1-0.1,0.2-0.1,0.2c-0.4,0.3-1,0.6-1.6,0.6
				c-1.2,0-2-0.8-2-1.9c0-1.4,1.1-2.8,2.7-2.8c1.2,0,1.8,0.8,1.8,1.7c0,0.2,0,0.4-0.1,0.6c0,0.2-0.2,0.3-0.4,0.3h-3.3
				c0,0.1,0,0.1,0,0.2c0,0.8,0.5,1.3,1.4,1.3C114.7,146.5,115.1,146.3,115.4,146z M115.8,144.4c0-0.1,0-0.2,0-0.4
				c0-0.6-0.4-1.2-1.1-1.2c-0.9,0-1.6,0.7-1.8,1.5H115.8z"/>
			<path class="st1" d="M119.9,145.7c0-0.3-0.2-0.5-0.9-0.8c-0.8-0.3-1.3-0.6-1.3-1.2c0-0.8,0.7-1.4,1.7-1.4c0.6,0,1.2,0.2,1.5,0.5
				c0.1,0.1,0.2,0.1,0.2,0.3c0,0.2-0.1,0.3-0.3,0.3c-0.1,0-0.1,0-0.2-0.1c-0.4-0.2-0.8-0.4-1.2-0.4c-0.6,0-1,0.3-1,0.7
				c0,0.3,0.2,0.5,0.9,0.8c0.8,0.3,1.2,0.7,1.2,1.3c0,0.8-0.8,1.4-1.7,1.4c-0.6,0-1.3-0.2-1.8-0.6c-0.1-0.1-0.1-0.2-0.1-0.3
				c0-0.2,0.1-0.3,0.3-0.3c0.1,0,0.2,0,0.2,0.1c0.5,0.4,0.9,0.5,1.4,0.5C119.4,146.5,119.9,146.2,119.9,145.7z"/>
			<path class="st1" d="M124.2,145.7c0-0.3-0.2-0.5-0.9-0.8c-0.8-0.3-1.3-0.6-1.3-1.2c0-0.8,0.7-1.4,1.7-1.4c0.6,0,1.2,0.2,1.5,0.5
				c0.1,0.1,0.2,0.1,0.2,0.3c0,0.2-0.1,0.3-0.3,0.3c-0.1,0-0.1,0-0.2-0.1c-0.4-0.2-0.8-0.4-1.2-0.4c-0.6,0-1,0.3-1,0.7
				c0,0.3,0.2,0.5,0.9,0.8c0.8,0.3,1.2,0.7,1.2,1.3c0,0.8-0.8,1.4-1.7,1.4c-0.6,0-1.3-0.2-1.8-0.6c-0.1-0.1-0.1-0.2-0.1-0.3
				c0-0.2,0.1-0.3,0.3-0.3c0.1,0,0.2,0,0.2,0.1c0.5,0.4,0.9,0.5,1.4,0.5C123.7,146.5,124.2,146.2,124.2,145.7z"/>
		</g>
		<rect x="5.1" y="134.2" class="st4" width="123.2" height="0.6"/>
	</g>
</g>
<g id="Layer_3" class="st5">
	<g class="st6">
		<g>
			<path class="st0" d="M2.5,53.7c0,8.1-6.6,14.7-14.7,14.7c-8.1,0-14.7-6.6-14.7-14.7c0-8.1,6.6-14.7,14.7-14.7
				C-4.1,38.9,2.5,45.5,2.5,53.7z"/>
			<path class="st0" d="M-12.2,68.9c-8.4,0-15.2-6.8-15.2-15.2c0-8.4,6.8-15.2,15.2-15.2C-3.8,38.5,3,45.3,3,53.7
				C3,62.1-3.8,68.9-12.2,68.9z M-12.2,39.4c-7.9,0-14.3,6.4-14.3,14.3c0,7.9,6.4,14.3,14.3,14.3c7.9,0,14.3-6.4,14.3-14.3
				C2.1,45.8-4.3,39.4-12.2,39.4z"/>
		</g>
		<g>
			<path class="st0" d="M11.8,69.3C11.8,77.4,5.2,84-2.9,84c-8.1,0-14.7-6.6-14.7-14.7c0-8.1,6.6-14.7,14.7-14.7
				C5.2,54.6,11.8,61.2,11.8,69.3z"/>
			<path class="st0" d="M-2.9,84.5c-8.4,0-15.2-6.8-15.2-15.2c0-8.4,6.8-15.2,15.2-15.2c8.4,0,15.2,6.8,15.2,15.2
				C12.3,77.7,5.4,84.5-2.9,84.5z M-2.9,55c-7.9,0-14.3,6.4-14.3,14.3c0,7.9,6.4,14.3,14.3,14.3c7.9,0,14.3-6.4,14.3-14.3
				C11.3,61.4,4.9,55-2.9,55z"/>
		</g>
		<g>
			<path class="st0" d="M-7.2,69.3c0,8.1-6.6,14.7-14.7,14.7c-8.1,0-14.7-6.6-14.7-14.7c0-8.1,6.6-14.7,14.7-14.7
				C-13.8,54.6-7.2,61.2-7.2,69.3z"/>
			<path class="st0" d="M-21.9,84.5c-8.4,0-15.2-6.8-15.2-15.2c0-8.4,6.8-15.2,15.2-15.2c8.4,0,15.2,6.8,15.2,15.2
				C-6.7,77.7-13.5,84.5-21.9,84.5z M-21.9,55c-7.9,0-14.3,6.4-14.3,14.3c0,7.9,6.4,14.3,14.3,14.3c7.9,0,14.3-6.4,14.3-14.3
				C-7.6,61.4-14,55-21.9,55z"/>
		</g>
		<g>
			<g>
				<path class="st1" d="M-45.1,90.5h-3.2c-0.6,0-1.1-0.5-1.1-1.1c0-0.6,0.5-1.1,1.1-1.1h8.8c0.6,0,1.1,0.5,1.1,1.1
					c0,0.6-0.5,1.1-1.1,1.1h-3.2v10.1c0,0.6-0.5,1.2-1.2,1.2c-0.6,0-1.2-0.5-1.2-1.2V90.5z"/>
				<path class="st1" d="M-36.7,89.5c0-0.7,0.5-1.2,1.2-1.2h4.7c1.7,0,3,0.5,3.8,1.3c0.7,0.7,1.1,1.7,1.1,2.9v0c0,2.1-1.2,3.4-3,4
					l2.5,3.2c0.2,0.3,0.4,0.5,0.4,0.9c0,0.6-0.5,1.1-1.1,1.1c-0.5,0-0.9-0.2-1.1-0.6l-3.2-4.1h-2.9v3.6c0,0.6-0.5,1.2-1.2,1.2
					c-0.7,0-1.2-0.5-1.2-1.2V89.5z M-31,94.9c1.7,0,2.7-0.9,2.7-2.2v0c0-1.4-1-2.2-2.8-2.2h-3.4v4.5H-31z"/>
				<path class="st1" d="M-23.5,89.4c0-0.6,0.5-1.2,1.2-1.2c0.6,0,1.2,0.5,1.2,1.2v11.2c0,0.6-0.5,1.2-1.2,1.2
					c-0.7,0-1.2-0.5-1.2-1.2V89.4z"/>
				<path class="st1" d="M-18.3,89.4c0-0.6,0.5-1.2,1.2-1.2h0.2c0.6,0,0.9,0.3,1.2,0.7l6.6,8.6v-8.2c0-0.6,0.5-1.1,1.1-1.1
					c0.6,0,1.2,0.5,1.2,1.1v11.2c0,0.6-0.5,1.2-1.1,1.2H-8c-0.6,0-0.9-0.3-1.2-0.7l-6.8-8.8v8.4c0,0.6-0.5,1.1-1.1,1.1
					c-0.6,0-1.2-0.5-1.2-1.1V89.4z"/>
				<path class="st1" d="M-3.9,89.4c0-0.6,0.5-1.2,1.2-1.2c0.6,0,1.2,0.5,1.2,1.2v11.2c0,0.6-0.5,1.2-1.2,1.2
					c-0.7,0-1.2-0.5-1.2-1.2V89.4z"/>
				<path class="st1" d="M4.6,90.5H1.3c-0.6,0-1.1-0.5-1.1-1.1c0-0.6,0.5-1.1,1.1-1.1h8.8c0.6,0,1.1,0.5,1.1,1.1
					c0,0.6-0.5,1.1-1.1,1.1H6.9v10.1c0,0.6-0.5,1.2-1.2,1.2c-0.6,0-1.2-0.5-1.2-1.2V90.5z"/>
				<path class="st1" d="M16.7,96.4l-4.6-6.3c-0.2-0.2-0.3-0.5-0.3-0.8c0-0.6,0.5-1.1,1.2-1.1c0.5,0,0.9,0.3,1.1,0.7l3.7,5.3
					l3.8-5.4c0.3-0.4,0.6-0.7,1.1-0.7c0.7,0,1.1,0.5,1.1,1.1c0,0.3-0.2,0.6-0.3,0.8L19,96.4v4.2c0,0.6-0.5,1.2-1.2,1.2
					c-0.6,0-1.2-0.5-1.2-1.2V96.4z"/>
			</g>
		</g>
		<g>
			<g>
				<path class="st1" d="M-38.7,106.9L-38.7,106.9c0-1.4,1.1-2.6,2.5-2.6c0.8,0,1.3,0.3,1.8,0.7c0,0,0.1,0.1,0.1,0.2
					c0,0.1-0.1,0.2-0.2,0.2c0,0-0.1,0-0.1,0c-0.4-0.4-0.9-0.6-1.6-0.6c-1.2,0-2.1,1-2.1,2.2v0c0,1.3,0.9,2.2,2.1,2.2
					c0.7,0,1.2-0.2,1.6-0.7c0,0,0.1-0.1,0.1-0.1c0.1,0,0.2,0.1,0.2,0.2c0,0.1,0,0.1-0.1,0.1c-0.5,0.5-1.1,0.8-1.9,0.8
					C-37.6,109.4-38.7,108.3-38.7,106.9z"/>
				<path class="st1" d="M-31.4,104.5c0-0.1,0.1-0.2,0.2-0.2s0.2,0.1,0.2,0.2v4.5h2.8c0.1,0,0.2,0.1,0.2,0.2c0,0.1-0.1,0.2-0.2,0.2
					h-3c-0.1,0-0.2-0.1-0.2-0.2V104.5z"/>
				<path class="st1" d="M-25.2,109.2v-4.6c0-0.1,0.1-0.2,0.2-0.2h3.2c0.1,0,0.2,0.1,0.2,0.2c0,0.1-0.1,0.2-0.2,0.2h-3v2h2.7
					c0.1,0,0.2,0.1,0.2,0.2c0,0.1-0.1,0.2-0.2,0.2h-2.7v2h3.1c0.1,0,0.2,0.1,0.2,0.2c0,0.1-0.1,0.2-0.2,0.2h-3.3
					C-25.2,109.3-25.2,109.3-25.2,109.2z"/>
				<path class="st1" d="M-19,109.1l2.1-4.6c0-0.1,0.1-0.2,0.2-0.2h0c0.1,0,0.2,0.1,0.2,0.2l2.1,4.6c0,0,0,0.1,0,0.1
					c0,0.1-0.1,0.2-0.2,0.2c-0.1,0-0.1-0.1-0.2-0.1l-0.6-1.3h-2.9l-0.6,1.3c0,0.1-0.1,0.1-0.2,0.1c-0.1,0-0.2-0.1-0.2-0.2
					C-19,109.2-19,109.1-19,109.1z M-15.3,107.6l-1.3-2.9l-1.3,2.9H-15.3z"/>
				<path class="st1" d="M-11.3,104.5c0-0.1,0.1-0.2,0.2-0.2h0.1c0.1,0,0.1,0,0.2,0.1l3.4,4.3v-4.2c0-0.1,0.1-0.2,0.2-0.2
					c0.1,0,0.2,0.1,0.2,0.2v4.7c0,0.1-0.1,0.2-0.1,0.2h0c-0.1,0-0.1-0.1-0.2-0.1l-3.4-4.3v4.3c0,0.1-0.1,0.2-0.2,0.2
					c-0.1,0-0.2-0.1-0.2-0.2V104.5z"/>
				<path class="st1" d="M-3.9,109.2v-4.6c0-0.1,0.1-0.2,0.2-0.2h3.2c0.1,0,0.2,0.1,0.2,0.2c0,0.1-0.1,0.2-0.2,0.2h-3v2h2.7
					c0.1,0,0.2,0.1,0.2,0.2c0,0.1-0.1,0.2-0.2,0.2h-2.7v2h3.1c0.1,0,0.2,0.1,0.2,0.2c0,0.1-0.1,0.2-0.2,0.2h-3.3
					C-3.8,109.3-3.9,109.3-3.9,109.2z"/>
				<path class="st1" d="M2.7,104.5c0-0.1,0.1-0.2,0.2-0.2h1.9c0.6,0,1.1,0.2,1.4,0.5c0.2,0.2,0.4,0.6,0.4,0.9v0
					c0,0.8-0.6,1.3-1.5,1.4l1.4,1.8c0,0,0.1,0.1,0.1,0.1c0,0.1-0.1,0.2-0.2,0.2c-0.1,0-0.1,0-0.2-0.1l-1.5-2H3v1.9
					c0,0.1-0.1,0.2-0.2,0.2c-0.1,0-0.2-0.1-0.2-0.2V104.5z M4.7,106.9c0.8,0,1.5-0.4,1.5-1.1v0c0-0.7-0.5-1.1-1.4-1.1H3v2.2H4.7z"/>
				<path class="st1" d="M9.4,108.7c0,0-0.1-0.1-0.1-0.1c0-0.1,0.1-0.2,0.2-0.2c0,0,0.1,0,0.1,0c0.5,0.4,1,0.6,1.7,0.6
					c0.7,0,1.3-0.4,1.3-1v0c0-0.5-0.3-0.8-1.4-1.1c-1.2-0.2-1.7-0.6-1.7-1.4v0c0-0.7,0.7-1.3,1.6-1.3c0.7,0,1.1,0.2,1.6,0.5
					c0,0,0.1,0.1,0.1,0.1c0,0.1-0.1,0.2-0.2,0.2c0,0-0.1,0-0.1,0c-0.4-0.3-0.9-0.5-1.4-0.5c-0.7,0-1.2,0.4-1.2,0.9v0
					c0,0.5,0.3,0.8,1.5,1.1c1.2,0.2,1.6,0.6,1.6,1.4v0c0,0.8-0.7,1.4-1.7,1.4C10.5,109.4,9.9,109.2,9.4,108.7z"/>
			</g>
		</g>
		<path class="st3" d="M-21.9,82.8c-7.4,0-13.5-6.1-13.5-13.5c0-7.4,6.1-13.5,13.5-13.5c7.4,0,13.5,6.1,13.5,13.5
			C-8.4,76.7-14.5,82.8-21.9,82.8z M-21.9,57.6c-6.4,0-11.6,5.2-11.6,11.6c0,6.4,5.2,11.6,11.6,11.6c6.4,0,11.6-5.2,11.6-11.6
			C-10.3,62.9-15.5,57.6-21.9,57.6z"/>
		<path class="st3" d="M-12.2,67.2c-7.4,0-13.5-6.1-13.5-13.5c0-7.4,6.1-13.5,13.5-13.5c7.4,0,13.5,6.1,13.5,13.5
			C1.3,61.1-4.8,67.2-12.2,67.2z M-12.2,42c-6.4,0-11.6,5.2-11.6,11.6c0,6.4,5.2,11.6,11.6,11.6c6.4,0,11.6-5.2,11.6-11.6
			C-0.6,47.3-5.8,42-12.2,42z"/>
		<path class="st3" d="M-2.9,82.8c-7.4,0-13.5-6.1-13.5-13.5c0-7.4,6.1-13.5,13.5-13.5c7.4,0,13.5,6.1,13.5,13.5
			C10.6,76.7,4.5,82.8-2.9,82.8z M-2.9,57.6c-6.4,0-11.6,5.2-11.6,11.6c0,6.4,5.2,11.6,11.6,11.6c6.4,0,11.6-5.2,11.6-11.6
			C8.7,62.9,3.5,57.6-2.9,57.6z"/>
		<path class="st7" d="M-24.5,61.8c-0.4-0.5-0.7-1.1-0.9-1.7c-3.7,1.4-6.3,5-6.3,9.2c0,2.5,0.9,4.7,2.4,6.5c-0.7-1.4-1.1-3-1.1-4.6
			C-30.4,67-28,63.4-24.5,61.8z"/>
		<path class="st7" d="M-21.9,54.6c0.4,0,0.8,0,1.2,0.1c0.4-5.4,4.9-9.6,10.3-9.6c1.7,0,3.2,0.4,4.6,1.1c-1.7-1.5-4-2.4-6.5-2.4
			c-5.5,0-9.9,4.4-9.9,9.9C-22.1,53.9-22,54.2-21.9,54.6C-22,54.6-21.9,54.6-21.9,54.6z"/>
		<path class="st3" d="M5.3,78.5c0,1.5-1.2,2.7-2.7,2.7c-1.5,0-2.7-1.2-2.7-2.7c0-1.5,1.2-2.7,2.7-2.7C4,75.8,5.3,77,5.3,78.5z"/>
		<path class="st3" d="M1.3,80.4c0,1-0.8,1.8-1.8,1.8c-1,0-1.8-0.8-1.8-1.8c0-1,0.8-1.8,1.8-1.8C0.5,78.6,1.3,79.4,1.3,80.4z"/>
		<path class="st3" d="M-1.6,80.6c0,0.8-0.7,1.5-1.5,1.5c-0.8,0-1.5-0.7-1.5-1.5c0-0.8,0.7-1.5,1.5-1.5C-2.3,79.1-1.6,79.8-1.6,80.6
			z"/>
		<path class="st3" d="M-4.2,80.6c0,0.8-0.7,1.5-1.5,1.5c-0.8,0-1.5-0.7-1.5-1.5c0-0.8,0.7-1.5,1.5-1.5C-4.9,79.1-4.2,79.8-4.2,80.6
			z"/>
		<path class="st3" d="M-19.7,80.6c0,0.8-0.7,1.5-1.5,1.5c-0.8,0-1.5-0.7-1.5-1.5c0-0.8,0.7-1.5,1.5-1.5
			C-20.4,79.1-19.7,79.8-19.7,80.6z"/>
		<path class="st3" d="M-16.6,80.6c0,0.8-0.7,1.5-1.5,1.5s-1.5-0.7-1.5-1.5c0-0.8,0.7-1.5,1.5-1.5S-16.6,79.8-16.6,80.6z"/>
		<path class="st3" d="M7.7,76.7c0,1-0.8,1.8-1.8,1.8c-1,0-1.8-0.8-1.8-1.8c0-1,0.8-1.8,1.8-1.8C6.9,75,7.7,75.8,7.7,76.7z"/>
		<path class="st3" d="M-29.4,78.5c0,1.5,1.2,2.7,2.7,2.7c1.5,0,2.7-1.2,2.7-2.7c0-1.5-1.2-2.7-2.7-2.7
			C-28.1,75.8-29.4,77-29.4,78.5z"/>
		<path class="st3" d="M-25.4,80.4c0,1,0.8,1.8,1.8,1.8c1,0,1.8-0.8,1.8-1.8c0-1-0.8-1.8-1.8-1.8C-24.6,78.6-25.4,79.4-25.4,80.4z"
			/>
		<path class="st3" d="M-17.7,80c0,0.8,0.6,1.4,1.4,1.4s1.4-0.6,1.4-1.4s-0.6-1.4-1.4-1.4S-17.7,79.2-17.7,80z"/>
		<path class="st3" d="M-9.8,80c0,0.8,0.6,1.4,1.4,1.4c0.8,0,1.4-0.6,1.4-1.4s-0.6-1.4-1.4-1.4C-9.2,78.6-9.8,79.2-9.8,80z"/>
		<path class="st3" d="M-31.8,76.7c0,1,0.8,1.8,1.8,1.8c1,0,1.8-0.8,1.8-1.8c0-1-0.8-1.8-1.8-1.8C-31,75-31.8,75.8-31.8,76.7z"/>
		<path class="st3" d="M-21.2,76.7c0,0.7,0.6,1.3,1.3,1.3c0.7,0,1.3-0.6,1.3-1.3c0-0.7-0.6-1.3-1.3-1.3
			C-20.6,75.4-21.2,76-21.2,76.7z"/>
		<path class="st3" d="M-28.3,74.1c0,0.5,0.4,0.9,0.9,0.9c0.5,0,0.9-0.4,0.9-0.9c0-0.5-0.4-0.9-0.9-0.9
			C-27.9,73.2-28.3,73.6-28.3,74.1z"/>
		<path class="st3" d="M-23.3,72.2c0,0.3,0.3,0.6,0.6,0.6c0.3,0,0.6-0.3,0.6-0.6c0-0.3-0.3-0.6-0.6-0.6
			C-23.1,71.6-23.3,71.9-23.3,72.2z"/>
		<path class="st3" d="M-1,72.1c0,0.3,0.3,0.6,0.6,0.6c0.3,0,0.6-0.3,0.6-0.6c0-0.3-0.3-0.6-0.6-0.6C-0.8,71.5-1,71.8-1,72.1z"/>
		<path class="st3" d="M3,74.1c0,0.5,0.4,0.9,0.9,0.9c0.5,0,0.9-0.4,0.9-0.9c0-0.5-0.4-0.9-0.9-0.9C3.4,73.2,3,73.6,3,74.1z"/>
		<path class="st3" d="M-5.5,73.3c0,0.3,0.3,0.6,0.6,0.6c0.3,0,0.6-0.3,0.6-0.6c0-0.3-0.3-0.6-0.6-0.6C-5.2,72.7-5.5,73-5.5,73.3z"
			/>
		<path class="st3" d="M-5.8,78.6c0,0.4,0.3,0.7,0.7,0.7c0.4,0,0.7-0.3,0.7-0.7c0-0.4-0.3-0.7-0.7-0.7C-5.5,77.9-5.8,78.2-5.8,78.6z
			"/>
		<path class="st3" d="M0.7,75.1c-2.1,0-3,0.9-3,3c0-2.1-0.9-3-3-3c2.1,0,3-0.9,3-3C-2.3,74.2-1.4,75.1,0.7,75.1z"/>
	</g>
	<path class="st8" d="M24.7-5.9c5.9,18.2,9.8,47.7,9.8,81c0,33.3-3.9,62.8-9.8,81h176.8v-162H24.7z"/>
	<rect x="47.8" y="43" class="st9" width="133.5" height="70"/>
	<text transform="matrix(1 0 0 1 47.8125 49.6404)" class="st6"><tspan x="0" y="0" class="st3 st10 st11">Chris Desrosiers</tspan><tspan x="0" y="8" class="st3 st12 st13">Owner/Operator</tspan><tspan x="0" y="24" class="st3 st14 st13">860-394-7340</tspan><tspan x="0" y="32" class="st3 st14 st13">TrinityCleanse@gmail.com</tspan><tspan x="0" y="48" class="st3 st12 st15">Visit us at:</tspan><tspan x="0" y="56" class="st3 st14 st13">trinitycleaners.org</tspan></text>
</g>
<g id="Layer_4">
</g>
<g id="Layer_2" class="st5">
	<polygon class="st16" points="-60.7,-21.4 -59.4,-21.4 -59.4,-21.4 -60.7,-21.4 	"/>
	<rect x="-112.7" y="-21.4" class="st17" width="53.2" height="199"/>
	<rect x="-102.1" y="-50.2" class="st17" width="338.1" height="53.2"/>
	<rect x="-102.1" y="147.1" class="st17" width="338.1" height="53.2"/>
	<rect x="192.6" y="-21.4" class="st17" width="53.2" height="199"/>
</g>
</svg>
